# xmcd
#
# Track frame offsets:
#	150
#	18713
#	38527
#	53162
#	66817
#	83318
#	101017
#	120681
#	137096
#	155218
#
# Disc length: 2312 seconds
#
# Revision: 1
# Processed by: cddbd v1.5.1PL0 Copyright (c) Steve Scherf et al.
# Submitted via: audiograbber 1.83.01
#
DISCID=7e09060a
DTITLE=Desert Cowboys - Tears Of The Heart
DYEAR=1900
DGENRE=Country
TTITLE0=Shock To The System
TTITLE1=Darlin
TTITLE2=Billy's Gone Wild
TTITLE3=Headin' For The Mattress
TTITLE4=Cadillac Man
TTITLE5=Jealousy's Inflamed
TTITLE6=Don't Break My Heart Again
TTITLE7=Standing In The Shadows
TTITLE8=Time Won't Wait
TTITLE9=If I Gave
EXTD=
EXTT0=
EXTT1=
EXTT2=
EXTT3=
EXTT4=
EXTT5=
EXTT6=
EXTT7=
EXTT8=
EXTT9=
PLAYORDER=
